<svg xmlns="http://www.w3.org/2000/svg" width="97" height="24" viewBox="0 0 97 24">
    <path fill="#242424" fill-rule="evenodd" clip-rule="evenodd" d="M16.6459 0.0996094H20.5254L21.7788 18.2952H18.249L17.5233 5.94481L11.8652 18.2952H9.91235L4.25548 5.99401L3.52972 18.2952H0L1.25217 0.0996094H5.13165L10.8888 12.6456L16.6459 0.0996094ZM24.0539 23.5536L24.4037 20.8392C24.7045 20.9868 25.0554 21.0588 25.4804 21.0588C26.5822 21.0588 27.0322 20.3988 27.5574 19.3968L28.2342 18.0024L22.452 5.11201H26.1811L29.9865 14.406L33.5413 5.11201H37.2453L30.8878 19.812C29.8111 22.3548 28.6604 23.9196 26.0569 23.9196C25.281 23.9196 24.5541 23.772 24.0539 23.5524V23.5536ZM49.0604 3.06001H43.4024V18.2964H39.8738V3.06001H34.2396V0.196809H49.0604V3.06001ZM59.8477 5.11441V18.2964H56.5687L56.5186 16.6824C55.5421 17.9064 54.0655 18.5424 52.3633 18.5424C49.3099 18.5424 47.2317 16.4868 47.2317 13.3812V5.11201H50.6361V12.8664C50.6361 14.5536 51.8119 15.678 53.5642 15.678C55.2915 15.678 56.4434 14.5536 56.4434 12.8664V5.11321H59.8477V5.11441ZM71.3358 15.24V17.9292C70.3092 18.3456 69.1084 18.5412 67.9063 18.5412C65.4282 18.5412 63.7523 16.878 63.7523 14.3832V7.82881H61.5225V5.11201H63.7499V1.24801H67.1543V5.11201H71.1352V7.82761H67.1543V13.6956C67.1543 14.8956 67.9063 15.678 69.0069 15.678C69.7828 15.678 70.5587 15.5556 71.3346 15.2376L71.3358 15.24ZM83.1246 11.694C83.1246 9.29641 81.648 7.70761 79.4445 7.70761C77.217 7.70761 75.7405 9.29641 75.7405 11.694C75.7405 14.0904 77.217 15.6792 79.4445 15.6792C81.648 15.6792 83.1246 14.0904 83.1246 11.694ZM72.2107 11.694C72.2107 7.60921 75.115 4.87081 79.4445 4.87081C83.7513 4.87081 86.6543 7.60921 86.6543 11.694C86.6543 15.8028 83.7513 18.5412 79.4445 18.5412C75.115 18.5412 72.2107 15.8028 72.2107 11.694ZM96.6168 4.86961L96.39 7.92601C93.5872 7.92601 91.7346 9.24601 91.7346 11.2272V18.2952H88.3302V5.11321H91.6093L91.6606 6.87361C92.7361 5.57761 94.4383 4.86961 96.6168 4.86961Z" />
</svg>